<svg xmlns="http://www.w3.org/2000/svg" width="297.638" height="99.214" viewBox="0 0 297.638 99.214">
  <path fill="#F60" d="M207.7 97.533c-36.14 6.146-75.693-4.313-102.232-35.47-3.137-.414-5.363 2.6-7.957 3.82l-3.6-5.93c2.958-3.958 8.33-9.05 13.96-8.765 4.294.22 6.162 5.688 8.67 8.432 20.57 22.5 58.884 35.003 90.614 29.672 21.822-3.668 42.594-13.967 57.35-30.7h10.023c-16.874 21.147-40.17 34.404-66.826 38.94z"/>
  <path fill-rule="evenodd" clip-rule="evenodd" fill="#666" d="M16.252 8.68h7.33c.65 0 .828-.057 1.24-.733l2.248-4.283c.118-.282.354-.68.354-.845 0-.452-.06-.622-1.004-.622H2.246c-.77 0-.945.056-1.065.787L.18 7.215c-.12.28-.178.56-.178.844 0 .505.354.62 1.004.62h7.564L1.655 39.337c-.06.227-.12.676-.12.846 0 .336.12.618.887.618h5.734c.707 0 .887-.054 1.062-.787L16.252 8.68zM43.588 39.843c.295-.11.71-.225.71-.618 0-1.013-.534-1.803-.534-3.496 0-1.804.414-3.212.71-4.62l4.314-17.866c.062-.227.12-.452.12-.677 0-.394-.237-.563-.827-.563-.295 0-.592.114-.886.17l-4.847.96c-.65.17-.77.223-.827.673l-2.543 10.99c-.887 4.057-2.896 11.045-8.395 11.045-1.24 0-1.772-.9-1.772-2.198 0-1.182.296-2.31.53-3.438l4.198-16.793c.06-.226.12-.62.12-.846 0-.394-.238-.563-.83-.563-.294 0-.59.114-.885.17l-4.846.96c-.652.17-.77.223-.83.673l-4.314 17.64c-.354 1.41-.65 2.93-.65 4.395 0 3.1 2.13 5.917 5.97 5.917 4.85 0 8.216-3.888 9.814-5.692 0 3.157.53 5.69 1.18 5.69.298 0 .416-.11.594-.168l4.728-1.747zM58.794 28.968c.825-3.777 3.485-10.2 8.038-10.2.944 0 1.594.393 2.01.393.117 0 .295-.168.354-.28l2.48-5.692c.06-.17.12-.282.12-.452 0-.507-1.123-.732-2.01-.732-4.55 0-7.565 4.002-9.16 5.693 0-3.157-.533-5.693-1.183-5.693-.295 0-.415.114-.59.17l-4.73 1.746c-.295.114-.71.226-.71.62 0 1.016.532 1.804.532 3.496 0 1.802-.412 3.21-.708 4.622l-4.02 16.962c-.06.225-.117.45-.06.62 0 .452.297.563.77.563h5.495c.592 0 .65-.055.83-.675l2.542-11.16zM96.728 22.317c.354-1.41.59-2.93.59-4.397 0-3.1-2.127-5.917-5.968-5.917-4.85 0-8.216 3.888-9.813 5.693 0-3.157-.53-5.693-1.18-5.693-.3 0-.416.114-.594.17l-4.73 1.746c-.294.113-.708.225-.708.62 0 1.015.533 1.803.533 3.495 0 1.802-.356 3.21-.71 4.622l-4.018 16.96c0 .226-.06.452-.06.62 0 .453.294.564.767.564h5.498c.592 0 .71-.054.83-.674l2.54-11.158C80.65 24.91 82.6 17.92 88.04 17.92c1.24 0 1.77.904 1.77 2.2 0 1.183-.234 2.31-.53 3.438l-3.903 16.06c0 .226-.06.452-.06.62 0 .453.297.564.77.564h5.498c.592 0 .71-.055.827-.675l4.316-17.81zM112.91 23.557h10.168c.77 0 .888-.057 1.063-.79l.83-3.72c.06-.28.116-.506.116-.788 0-.34-.235-.622-.828-.622H114.21l2.128-9.523h11.646c.65 0 .83-.056 1.24-.732l2.01-3.72c.12-.28.356-.678.356-.844 0-.452-.062-.622-1.005-.622h-19.742c-.71 0-.887.056-1.063.787l-8.097 36.352c-.06.227-.12.676-.12.846 0 .336.12.618.887.618h5.733c.71 0 .887-.054 1.064-.787l3.664-16.456zM137.616 28.968c.826-3.777 3.486-10.2 8.04-10.2.944 0 1.595.393 2.01.393.117 0 .294-.168.353-.28l2.48-5.692c.062-.17.12-.282.12-.452 0-.507-1.124-.732-2.01-.732-4.552 0-7.566 4.002-9.162 5.693 0-3.157-.533-5.693-1.183-5.693-.295 0-.415.114-.592.17l-4.728 1.746c-.295.114-.71.226-.71.62 0 1.016.532 1.804.532 3.496 0 1.802-.414 3.21-.71 4.622l-4.02 16.962c-.06.225-.116.45-.06.62 0 .452.297.563.768.563h5.498c.593 0 .65-.055.83-.675l2.543-11.16zM165.75 14.202c.062-.17.062-.507.062-.734 0-.335-.236-.505-.71-.505H154.11c-.592 0-.77.055-.89.675l-.65 3.156c-.06.226-.117.453-.117.676 0 .396.238.565.77.565h4.49l-4.786 21.583c-.058.225-.058.45-.058.62 0 .452.294.563.766.563h5.496c.59 0 .71-.054.83-.674l5.79-25.924zm3.136-9.58c0-2.762-2.484-4.622-4.906-4.622-2.365 0-4.85 1.803-4.85 4.62 0 2.65 2.19 4.677 4.85 4.677 2.658 0 4.906-2.026 4.906-4.676zM187.118 34.265c-.12-.225-.178-.396-.472-.396-.888 0-4.02 2.255-7.508 2.255-5.555 0-5.083-4.34-5.083-6.03 3.37 0 18.384 0 18.384-10.65 0-4.51-3.194-7.44-8.748-7.44-9.103 0-16.728 8.002-16.728 19.274 0 6.253 3.19 10.48 10.283 10.48 6.03 0 11.526-2.763 11.526-3.495 0-.17-.12-.34-.18-.507l-1.475-3.493zm-4.492-17.188c1.774 0 2.72 1.294 2.72 2.76 0 5.185-7.92 5.185-10.464 5.185.534-2.084 2.187-7.945 7.744-7.945zM220.514 22.317c.354-1.41.59-2.93.59-4.397 0-3.1-2.13-5.917-5.97-5.917-4.846 0-8.217 3.888-9.81 5.693 0-3.157-.534-5.693-1.184-5.693-.296 0-.415.114-.592.17l-4.728 1.746c-.296.113-.71.225-.71.62 0 1.015.53 1.803.53 3.495 0 1.802-.353 3.21-.707 4.622l-4.02 16.962c0 .224-.06.45-.06.62 0 .45.296.562.77.562h5.495c.59 0 .71-.055.827-.675l2.544-11.158c.942-4.06 2.894-11.048 8.332-11.048 1.24 0 1.772.903 1.772 2.198 0 1.184-.237 2.31-.53 3.44l-3.902 16.06c0 .225-.06.45-.06.62 0 .452.297.563.768.563h5.497c.592 0 .71-.055.827-.675l4.32-17.81zM240.507 27.67c-.887 4.06-3.486 8.455-7.094 8.455-1.832 0-2.838-1.465-2.838-3.89 0-5.86 2.188-14.878 8.216-14.878 2.012 0 3.313.79 3.787 1.014l-2.07 9.3zm5.433 12.173c.3-.11.713-.225.713-.618 0-.678-.414-2.03-.475-3.383 0-.676-.057-1.69.237-2.93l6.976-31.22c.06-.34.18-.79.18-1.073 0-.45-.058-.62-.297-.62-.178 0-.59.11-.827.17l-5.202 1.013c-.885.17-.945.397-1.065.958l-2.54 11.273c-.946-.508-2.248-1.41-5.144-1.41-10.225 0-15.01 12.286-15.01 21.303 0 5.635 2.243 8.453 6.44 8.453 5.26 0 7.98-3.437 9.455-5.073 0 2.818.477 5.072 1.126 5.072.295 0 .53-.113.708-.17l4.726-1.747zM264.563 35.674c-.06-.34-.237-.396-.416-.396-.295 0-1.182.396-2.186.396-.885 0-1.358-.34-1.358-1.128 0-.79.412-2.197.712-3.55L267.99 1.69c.06-.338.18-.79.18-1.127 0-.395-.06-.563-.298-.563-.176 0-.59.11-.83.17l-5.195 1.013c-.888.17-.948.397-1.066.958l-6.56 28.913c-.474 1.972-.71 3.944-.71 5.973 0 3.664 2.306 4.733 5.734 4.733 2.305 0 5.968-.788 5.968-1.634 0-.17-.06-.394-.06-.563l-.59-3.89zM286.62 25.728c-3.082 7.162-5.83 10.938-5.79 10.965l-.863-.006c0-.62-.238-6.537-.534-10.143L278.37 13.58c-.117-.9-.117-1.124-.59-1.124-.238 0-.77.057-1.242.112l-4.373.565c-.65.055-.888.335-.888.563 0 .168 0 .45.06.732l3.136 25.642c.056.732.41.732.825.732l2.41.26-11.22 14.62h9.697s7.12-9.113 13.183-20.992c4.487-8.79 7.858-20.206 7.858-20.206.177-.338.412-.732.412-.958 0-.224-.235-.34-.886-.394l-4.373-.565c-.533-.055-.83-.112-1.065-.112-.295 0-.475.225-.593.45 0 0-1.646 7.103-4.103 12.823z"/>
</svg>
